<mxfile host="65bd71144e">
    <diagram id="vq1AqlcZT4hBEY2t6OET" name="Page-1">
        <mxGraphModel dx="795" dy="1890" grid="1" gridSize="10" guides="1" tooltips="1" connect="1" arrows="1" fold="1" page="1" pageScale="1" pageWidth="850" pageHeight="1100" math="0" shadow="0">
            <root>
                <mxCell id="0"/>
                <mxCell id="1" parent="0"/>
                <mxCell id="2" value="" style="shape=image;verticalLabelPosition=bottom;labelBackgroundColor=#ffffff;verticalAlign=top;aspect=fixed;imageAspect=0;image=https://files.cdn.thinkific.com/file_uploads/211484/attachments/73f/b40/1f2/robots_vs_dinosaurs_uml.png;" vertex="1" parent="1">
                    <mxGeometry y="-120" width="442.38" height="810" as="geometry"/>
                </mxCell>
            </root>
        </mxGraphModel>
    </diagram>
</mxfile>